<?xml version="1.0" encoding="UTF-8"?>
<svg id="Capa_1" xmlns="http://www.w3.org/2000/svg" version="1.1" viewBox="0 0 42 42">
  <!-- Generator: Adobe Illustrator 29.5.0, SVG Export Plug-In . SVG Version: 2.1.0 Build 137)  -->
  <defs>
    <style>
      .st0 {
        fill: #fff;
      }

      .st1 {
        fill: #631009;
      }
    </style>
  </defs>
  <circle class="st1" cx="21" cy="21" r="21"/>
  <g>
    <path class="st0" d="M20.7,7.2c-7.6.1-13.7,6.3-13.7,13.7h0s0,0,0,0c0,7.5,6.2,13.7,13.8,13.8V7.2h0ZM9.9,16.1c.6-1.3,1.4-2.5,2.5-3.5.8-.8,1.7-1.5,2.7-2l.5-.3-.3.5c-.1.2-.3.4-.4.6-.7,1.3-1.3,2.9-1.7,4.7h0c0,.1-3.3.1-3.3.1v-.2ZM9.2,23.8c-.2-.9-.3-1.9-.3-2.8h0c0-1,.1-1.9.3-2.8h0c0-.1,3.6-.1,3.6-.1v.2c-.1.9-.2,1.8-.2,2.8h0c0,.9,0,1.9.2,2.8v.2s-3.6,0-3.6,0h0ZM15.1,31.4c-1-.5-1.9-1.2-2.7-2-1-1-1.8-2.2-2.4-3.4v-.3c-.1,0,3.2,0,3.2,0,.1.6.3,1.2.5,1.9,0,0,0,0,0,0,.3,1.1.7,2,1.2,2.9.1.2.3.4.4.6l.3.5-.5-.3ZM18.9,32.4l-.2-.2c-.8-.6-1.6-1.4-2.2-2.6-.6-1-1.1-2.3-1.4-3.6v-.3c0,0,3.8,0,3.8,0v6.7ZM18.9,23.9h-4.3c0-.2,0-.2,0-.2h0c0-.2,0-.4,0-.6h0c0-.3,0-.5,0-.7h0c0-.5,0-1,0-1.5,0-.5,0-1,0-1.4h0c0-.2,0-.5,0-.7h0c0-.3,0-.5,0-.7h0c0-.1,4.2-.1,4.2-.1v5.9ZM18.9,16.3h-3.9v-.2c.4-1.4.9-2.7,1.5-3.8.6-1.2,1.4-2,2.2-2.6l.2-.2v6.7Z"/>
    <path class="st0" d="M35,16.5h0c0-5.1-4.2-9.2-9.4-9.2h0s-3.3,0-3.3,0v2.1h3.2c4,0,7.3,3.2,7.4,7.2,0,4-3.3,7.2-7.4,7.2h0s-3.2,0-3.2,0v2.1h3.3c5.1,0,9.3-4.2,9.4-9.2h0s0,0,0,0c0,0,0,0,0,0h0Z"/>
  </g>
</svg>