<?xml version="1.0" encoding="UTF-8"?>
<svg id="Capa_1" xmlns="http://www.w3.org/2000/svg" version="1.1" viewBox="0 0 200.2 42">
  <!-- Generator: Adobe Illustrator 29.5.0, SVG Export Plug-In . SVG Version: 2.1.0 Build 137)  -->
  <defs>
    <style>
      .st0 {
        fill: #631009;
      }
    </style>
  </defs>
  <path class="st0" d="M120.8,15.7c-.9-1.5-2.1-2.7-3.7-3.5h0c-1.6-.8-3.5-1.2-5.6-1.2h-6.6v19.7h6.6c2.1,0,4-.4,5.6-1.2,1.6-.8,2.8-1.9,3.7-3.4.9-1.5,1.3-3.2,1.3-5.2s-.4-3.8-1.3-5.3ZM116.8,26.1c-1.2,1.2-3,1.8-5.2,1.8h-3.1v-14h3.1c2.3,0,4,.6,5.2,1.9,1.2,1.2,1.8,3,1.8,5.2s-.6,3.9-1.8,5.1Z"/>
  <path class="st0" d="M175,11h-3.9l-7.2,19.8h3.6l1.4-4h8.1l1.4,4h3.7l-7.2-19.8ZM170,23.9l3.1-8.6,3,8.6h-6.1Z"/>
  <polygon class="st0" points="151.8 26.1 145 11.1 144.9 11 141.2 11 141.2 30.8 144.7 30.8 144.7 17.9 150.6 30.8 153 30.8 158.8 17.9 158.8 30.8 162.3 30.8 162.3 11 158.6 11 151.8 26.1"/>
  <polygon class="st0" points="196.7 11 196.7 25.2 187.2 11.1 187.1 11 183.7 11 183.7 30.8 187.2 30.8 187.2 16.5 196.7 30.7 196.7 30.8 200.1 30.8 200.1 11 196.7 11"/>
  <polygon class="st0" points="125.3 30.8 138.1 30.8 138.1 27.9 128.8 27.9 128.8 22.2 137.2 22.2 137.2 19.3 128.8 19.3 128.8 13.9 138.1 13.9 138.1 11 125.3 11 125.3 30.8"/>
  <path class="st0" d="M75.7,22.6c1.5-.4,2.6-1.1,3.4-2.1h0c.8-1.1,1.1-2.2,1.1-3.5s-.3-2.1-.8-3c-.5-.9-1.3-1.6-2.4-2.2-1.1-.5-2.4-.8-3.9-.8h-6.9v19.7h3.5v-7.8h2.3l4.5,7.7h0c0,0,4.2,0,4.2,0l-4.9-8.1ZM69.7,20.2v-6.3h3.4c1.2,0,2.1.3,2.7.8.6.5.9,1.3.9,2.3s-.3,1.8-.9,2.3c-.6.6-1.5.9-2.6.9h-3.4Z"/>
  <path class="st0" d="M19.5,1.5C8.8,1.7.1,10.4.1,21h0s0,0,0,0c0,10.7,8.7,19.4,19.5,19.5V1.5h-.1ZM4.3,14c.8-1.8,2-3.5,3.5-4.9,1.1-1.1,2.4-2.1,3.8-2.8l.7-.4-.4.7c-.2.3-.4.6-.6.9-1,1.9-1.9,4.2-2.4,6.7v.2s-4.7,0-4.7,0v-.3ZM3.2,25c-.3-1.3-.5-2.6-.5-4h0c0-1.3.2-2.7.5-4v-.2h5.1v.2c-.2,1.2-.2,2.6-.2,3.9h0c0,1.3,0,2.7.2,3.9v.2s-5.1,0-5.1,0v-.2ZM11.6,35.7c-1.4-.8-2.7-1.7-3.8-2.8-1.4-1.4-2.6-3.1-3.4-4.9l-.2-.4h4.6c.2.8.4,1.8.7,2.7,0,0,0,0,0,0,.5,1.5,1.1,2.9,1.8,4.1.2.3.4.6.6.9l.4.7-.7-.4ZM17,37.2l-.3-.2c-1.2-.8-2.2-2-3.1-3.7-.8-1.5-1.5-3.2-2-5.1v-.5c-.1,0,5.4,0,5.4,0v9.5ZM17,25.1h-6v-.2s0-.1,0-.1h0c0-.3,0-.5,0-.8h0c0-.4,0-.7,0-1h0c0-.7,0-1.4,0-2.1,0-.7,0-1.4,0-2h0c0-.4,0-.7,0-1h0c0-.4,0-.7,0-.9v-.2h6v8.3ZM17,14.3h-5.5v-.3c.6-2,1.3-3.8,2.1-5.3.9-1.6,2-2.9,3.1-3.7l.3-.2v9.5Z"/>
  <path class="st0" d="M63,14c-.5-.9-1.3-1.6-2.4-2.1-1.1-.5-2.4-.8-3.9-.8h-6.9v19.7h3.5v-7.9h3.4c1.6,0,3-.3,4.1-.8,1.1-.6,1.8-1.3,2.3-2.2.5-.9.7-1.9.7-2.9s-.3-2.1-.8-3ZM59.4,19.2c-.6.5-1.5.8-2.7.8h-3.4v-6.1h3.4c2.4,0,3.5,1,3.5,3.1s-.3,1.7-.9,2.3Z"/>
  <path class="st0" d="M100.9,15.7c-.9-1.5-2.1-2.7-3.7-3.6-1.6-.9-3.3-1.3-5.2-1.3s-3.6.4-5.1,1.3c-1.6.9-2.8,2.1-3.7,3.6-.9,1.5-1.4,3.3-1.4,5.2s.5,3.7,1.4,5.2c.9,1.5,2.2,2.8,3.7,3.6,1.6.9,3.3,1.3,5.1,1.3s3.6-.4,5.2-1.3c1.6-.9,2.8-2.1,3.7-3.6.9-1.5,1.4-3.3,1.4-5.2s-.5-3.7-1.4-5.2ZM97.8,24.6h0c-.6,1.1-1.4,1.9-2.3,2.5-1,.6-2.2.9-3.4.9s-2.4-.3-3.4-.9c-1-.6-1.8-1.4-2.3-2.5-.6-1.1-.9-2.3-.9-3.7s.3-2.7.9-3.7c.6-1.1,1.4-1.9,2.3-2.4,1-.6,2.2-.9,3.4-.9s2.4.3,3.4.9c1,.6,1.8,1.4,2.3,2.4.6,1.1.9,2.3.9,3.7s-.3,2.7-.9,3.7Z"/>
  <path class="st0" d="M39.8,14.6h0c-.1-7.2-6-13-13.3-13.1h0s-4.6,0-4.6,0v3h4.5c5.7,0,10.4,4.6,10.4,10.2,0,5.7-4.7,10.2-10.4,10.2h0s-4.5,0-4.5,0v3h4.6c7.3,0,13.2-5.9,13.3-13.1h0s0,0,0,0c0,0,0,0,0,0h0Z"/>
</svg>